<?xml version="1.0" standalone="no"?>
<svg xmlns:xlink="http://www.w3.org/1999/xlink" id="wave" style="transform:rotate(0deg); transition: 0.3s" viewBox="0 0 1440 100" version="1.1" xmlns="http://www.w3.org/2000/svg"><defs><linearGradient id="sw-gradient-0" x1="0" x2="0" y1="1" y2="0"><stop stop-color="rgba(38, 38, 38, 1)" offset="0%"/><stop stop-color="rgba(38, 38, 38, 1)" offset="100%"/></linearGradient></defs><path style="transform:translate(0, 0px); opacity:1" fill="url(#sw-gradient-0)" d="M0,90L21.8,78.3C43.6,67,87,43,131,31.7C174.5,20,218,20,262,30C305.5,40,349,60,393,63.3C436.4,67,480,53,524,45C567.3,37,611,33,655,33.3C698.2,33,742,37,785,46.7C829.1,57,873,73,916,75C960,77,1004,63,1047,55C1090.9,47,1135,43,1178,50C1221.8,57,1265,73,1309,66.7C1352.7,60,1396,30,1440,18.3C1483.6,7,1527,13,1571,21.7C1614.5,30,1658,40,1702,51.7C1745.5,63,1789,77,1833,68.3C1876.4,60,1920,30,1964,20C2007.3,10,2051,20,2095,33.3C2138.2,47,2182,63,2225,60C2269.1,57,2313,33,2356,26.7C2400,20,2444,30,2487,35C2530.9,40,2575,40,2618,38.3C2661.8,37,2705,33,2749,38.3C2792.7,43,2836,57,2880,53.3C2923.6,50,2967,30,3011,33.3C3054.5,37,3098,63,3120,76.7L3141.8,90L3141.8,100L3120,100C3098.2,100,3055,100,3011,100C2967.3,100,2924,100,2880,100C2836.4,100,2793,100,2749,100C2705.5,100,2662,100,2618,100C2574.5,100,2531,100,2487,100C2443.6,100,2400,100,2356,100C2312.7,100,2269,100,2225,100C2181.8,100,2138,100,2095,100C2050.9,100,2007,100,1964,100C1920,100,1876,100,1833,100C1789.1,100,1745,100,1702,100C1658.2,100,1615,100,1571,100C1527.3,100,1484,100,1440,100C1396.4,100,1353,100,1309,100C1265.5,100,1222,100,1178,100C1134.5,100,1091,100,1047,100C1003.6,100,960,100,916,100C872.7,100,829,100,785,100C741.8,100,698,100,655,100C610.9,100,567,100,524,100C480,100,436,100,393,100C349.1,100,305,100,262,100C218.2,100,175,100,131,100C87.3,100,44,100,22,100L0,100Z"/></svg>